<?xml version="1.0" encoding="UTF-8" standalone="no"?>
<svg
   width="8496"
   height="2644"
   version="1.1"
   id="svg1"
   inkscape:version="1.3.2 (091e20ef0f, 2023-11-25)"
   sodipodi:docname="letters.inkscape.svg"
   xmlns:inkscape="http://www.inkscape.org/namespaces/inkscape"
   xmlns:sodipodi="http://sodipodi.sourceforge.net/DTD/sodipodi-0.dtd"
   xmlns="http://www.w3.org/2000/svg"
   xmlns:svg="http://www.w3.org/2000/svg">
  <sodipodi:namedview
     id="namedview1"
     pagecolor="#ffffff"
     bordercolor="#000000"
     borderopacity="0.25"
     inkscape:showpageshadow="2"
     inkscape:pageopacity="0.0"
     inkscape:pagecheckerboard="0"
     inkscape:deskcolor="#2f2f2f"
     inkscape:document-units="px"
     showgrid="false"
     inkscape:zoom="0.14120609"
     inkscape:cx="4365.959"
     inkscape:cy="1352.6329"
     inkscape:current-layer="layer1" />
  <defs
     id="defs1">
    <path
       id="prefix__A"
       d="M5313.999 1849.526h3288.998v709.316H5313.999z" />
    <path
       id="prefix__i"
       d="M136 836h700v163H136z" />
    <path
       id="prefix__j"
       d="M136 836h700v163H136z" />
    <path
       id="prefix__k"
       d="M136 836h700v163H136z" />
    <path
       id="prefix__l"
       d="M136 836h700v163H136z" />
    <path
       id="prefix__m"
       d="M136 836h700v163H136z" />
    <path
       id="prefix__n"
       d="M136 836h700v163H136z" />
    <path
       id="prefix__o"
       d="M136 836h700v163H136z" />
    <path
       id="prefix__p"
       d="M136 836h700v163H136z" />
    <path
       id="prefix__g"
       d="M136 836h700v163H136z" />
    <path
       id="prefix__h"
       d="M136 836h700v163H136z" />
    <path
       id="prefix__q"
       d="M136 836h700v163H136z" />
    <path
       id="prefix__r"
       d="M136 836h700v163H136z" />
    <path
       id="prefix__s"
       d="M136 836h700v163H136z" />
    <path
       id="prefix__t"
       d="M136 836h700v163H136z" />
    <path
       id="prefix__u"
       d="M136 836h700v163H136z" />
    <path
       id="prefix__v"
       d="M136 836h700v163H136z" />
    <path
       id="prefix__w"
       d="M136 836h700v163H136z" />
    <path
       id="prefix__x"
       d="M136 836h700v163H136z" />
    <path
       id="prefix__y"
       d="M136 836h700v163H136z" />
    <path
       id="prefix__z"
       d="M136 836h700v163H136z" />
    <path
       id="prefix__a"
       d="M136 836h700v163H136z" />
    <path
       id="prefix__b"
       d="M136 836h700v163H136z" />
    <path
       id="prefix__c"
       d="M136 836h700v163H136z" />
    <path
       id="prefix__d"
       d="M136 836h700v163H136z" />
    <path
       id="prefix__e"
       d="M136 836h700v163H136z" />
    <path
       id="prefix__f"
       d="M136 836h700v163H136z" />
  </defs>
  <g
     inkscape:groupmode="layer"
     id="layer2"
     inkscape:label="Guides"
     sodipodi:insensitive="true">
    <g
       font-weight="400"
       font-size="120px"
       font-family="'Fira Code'"
       letter-spacing="0"
       stroke-width="0"
       id="g30"
       inkscape:label="Text">
      <text
         id="text2"
         inkscape:label="Z"
         x="4180.001"
         y="1672"><tspan
           x="4629.0781"
           y="2613"
           id="tspan2">Z</tspan></text>
      <text
         id="text3"
         inkscape:label="Y"
         x="3344.001"
         y="1672"><tspan
           x="3793.0779"
           y="2613"
           id="tspan3">Y</tspan></text>
      <text
         id="text4"
         inkscape:label="X"
         x="2589"
         y="1672"><tspan
           x="3038.0769"
           y="2613"
           id="tspan4">X</tspan></text>
      <text
         id="text5"
         inkscape:label="W"
         x="1672"
         y="1672"><tspan
           x="2121.0769"
           y="2613"
           id="tspan5">W</tspan></text>
      <text
         id="text6"
         inkscape:label="V"
         x="836"
         y="1672"><tspan
           x="1285.077"
           y="2613"
           id="tspan6">V</tspan></text>
      <text
         id="text7"
         inkscape:label="U"
         y="1672"><tspan
           x="449.077"
           y="2613"
           id="tspan7">U</tspan></text>
      <text
         id="text8"
         inkscape:label="T"
         x="7524.002"
         y="836"><tspan
           x="7973.0791"
           y="1777"
           id="tspan8">T</tspan></text>
      <text
         id="text9"
         inkscape:label="S"
         x="6688.002"
         y="836"><tspan
           x="7137.0791"
           y="1777"
           id="tspan9">S</tspan></text>
      <text
         id="text10"
         inkscape:label="R"
         x="5852.002"
         y="836"><tspan
           x="6301.0791"
           y="1777"
           id="tspan10">R</tspan></text>
      <text
         id="text11"
         inkscape:label="Q"
         x="5016.001"
         y="836"><tspan
           x="5465.0781"
           y="1777"
           id="tspan11">Q</tspan></text>
      <text
         id="text12"
         inkscape:label="P"
         x="4180.001"
         y="836"><tspan
           x="4629.0781"
           y="1777"
           id="tspan12">P</tspan></text>
      <text
         id="text13"
         inkscape:label="O"
         x="3344.001"
         y="836"><tspan
           x="3793.0779"
           y="1777"
           id="tspan13">O</tspan></text>
      <text
         id="text14"
         inkscape:label="N"
         x="2508.001"
         y="836"><tspan
           x="2957.0779"
           y="1777"
           id="tspan14">N</tspan></text>
      <text
         id="text15"
         inkscape:label="M"
         x="1672"
         y="836"><tspan
           x="2121.0769"
           y="1777"
           id="tspan15">M</tspan></text>
      <text
         id="text16"
         inkscape:label="L"
         x="836"
         y="836"><tspan
           x="1285.077"
           y="1777"
           id="tspan16">L</tspan></text>
      <text
         id="text17"
         inkscape:label="K"
         y="836"><tspan
           x="449.077"
           y="1777"
           id="tspan17">K</tspan></text>
      <text
         id="text18"
         inkscape:label="J"
         x="7524.002"><tspan
           x="7973.0791"
           y="941"
           id="tspan18">J</tspan></text>
      <text
         id="text19"
         inkscape:label="I"
         x="6688.002"><tspan
           x="7137.0791"
           y="941"
           id="tspan19">I</tspan></text>
      <text
         id="text20"
         inkscape:label="H"
         x="5852.002"><tspan
           x="6301.0791"
           y="941"
           id="tspan20">H</tspan></text>
      <text
         id="text21"
         inkscape:label="G"
         x="5016.001"><tspan
           x="5465.0781"
           y="941"
           id="tspan21">G</tspan></text>
      <text
         id="text22"
         inkscape:label="F"
         x="4180.001"><tspan
           x="4629.0781"
           y="941"
           id="tspan22">F</tspan></text>
      <text
         id="text23"
         inkscape:label="E"
         x="3344.001"><tspan
           x="3793.0779"
           y="941"
           id="tspan23">E</tspan></text>
      <text
         id="text24"
         inkscape:label="D"
         x="2508.001"><tspan
           x="2957.0779"
           y="941"
           id="tspan24">D</tspan></text>
      <text
         id="text25"
         inkscape:label="C"
         x="1672"><tspan
           x="2121.0769"
           y="941"
           id="tspan25">C</tspan></text>
      <text
         id="text26"
         inkscape:label="B"
         x="836"><tspan
           x="1285.077"
           y="941"
           id="tspan26">B</tspan></text>
      <text
         id="text27"
         inkscape:label="A"><tspan
           x="449.077"
           y="941"
           id="tspan27">A</tspan></text>
      <text
         x="-59.723209"
         id="text30"
         inkscape:label="OMER MAKES STUFF"
         y="160.47504"><tspan
           x="5285.4771"
           y="2115"
           id="tspan28">OMER MAKES STUFF</tspan><tspan
           x="5285.4771"
           y="2265"
           id="tspan30"><tspan
             dx="0 0 0 0 0 0 0 0 0 0 0 0 0 0 0 0 0 0 0 0 0 0 0 0 0 0 0 0 0"
             id="tspan29">A, E, F, K, M, O, R, S, T, U</tspan></tspan></text>
    </g>
    <g
       fill-opacity="0.35"
       id="g2"
       inkscape:label="Squares">
      <path
         d="M 136,136 H 836 V 836 H 136 Z"
         id="path57" />
      <path
         d="m 972,136 h 700 V 836 H 972 Z"
         id="path56" />
      <path
         d="m 1808,136 h 700 v 700 h -700 z"
         id="path55" />
      <path
         d="m 2644,136 h 700 v 700 h -700 z"
         id="path54" />
      <path
         d="m 3480,136 h 700 v 700 h -700 z"
         id="path53" />
      <path
         d="m 4316,136 h 700 v 700 h -700 z"
         id="path52" />
      <path
         d="m 5152,136 h 700 v 700 h -700 z"
         id="path51" />
      <path
         d="m 5988,136 h 700 v 700 h -700 z"
         id="path50" />
      <path
         d="m 6824,136 h 700 v 700 h -700 z"
         id="path49" />
      <path
         d="m 7660,136 h 700 v 700 h -700 z"
         id="path48" />
      <path
         d="m 136,972 h 700 v 700 H 136 Z"
         id="path47" />
      <path
         d="m 972,972 h 700 v 700 H 972 Z"
         id="path46" />
      <path
         d="m 1808,972 h 700 v 700 h -700 z"
         id="path45" />
      <path
         d="m 2644,972 h 700 v 700 h -700 z"
         id="path44" />
      <path
         d="m 3480,972 h 700 v 700 h -700 z"
         id="path43" />
      <path
         d="m 4316,972 h 700 v 700 h -700 z"
         id="path42" />
      <path
         d="m 5152,972 h 700 v 700 h -700 z"
         id="path41" />
      <path
         d="m 5988,972 h 700 v 700 h -700 z"
         id="path40" />
      <path
         d="m 6824,972 h 700 v 700 h -700 z"
         id="path39" />
      <path
         d="m 7660,972 h 700 v 700 h -700 z"
         id="path38" />
      <path
         d="m 136,1808 h 700 v 700 H 136 Z"
         id="path37" />
      <path
         d="m 972,1808 h 700 v 700 H 972 Z"
         id="path36" />
      <path
         d="m 1808,1808 h 700 v 700 h -700 z"
         id="path35" />
      <path
         d="m 2644,1808 h 700 v 700 h -700 z"
         id="path34" />
      <path
         d="m 3480,1808 h 700 v 700 h -700 z"
         id="path33" />
      <path
         d="m 4316,1808 h 700 v 700 h -700 z"
         id="path2" />
    </g>
  </g>
  <g
     inkscape:groupmode="layer"
     id="layer1"
     inkscape:label="Characters"
     inkscape:highlight-color="#1740ea">
    <path
       d="m 836,1808 v 379.723 c 0,68.4869 -14.13538,127.6166 -42.40614,177.3891 -28.27077,49.7725 -68.8851,88.1968 -121.84301,115.2731 C 618.79295,2507.4614 556.07964,2521 483.61092,2521 c -71.67235,0 -133.5893,-13.5386 -185.75085,-40.6148 -52.16155,-27.0763 -92.17862,-65.5006 -120.0512,-115.2731 C 149.9363,2315.3396 136,2256.2099 136,2187.723 V 1808 h 161 v 377.8637 c 0,38.1819 7.63636,71.1137 22.90909,98.7954 15.27273,27.6817 36.98863,49.159 65.14773,64.4318 C 413.21591,2364.3636 446.86364,2372 486,2372 c 38.18182,0 71.59091,-7.6364 100.22727,-22.9091 28.63637,-15.2728 50.59091,-36.7501 65.86364,-64.4318 C 667.36364,2256.9774 675,2224.0456 675,2185.8637 V 1808"
       id="path3"
       sodipodi:nodetypes="csssssssccsssssssc"
       inkscape:label="U"
       style="display:inline;stroke-width:1.19454" />
    <path
       d="M 7929.999,1672 V 1120 H 7660 V 972 h 700 v 148 h -270 v 552 z"
       id="path1"
       inkscape:label="T" />
    <path
       d="M 5988,1672 V 971.99997 h 457 c 50.6667,0 95.6667,9.83334 135,29.50003 39.3333,19.6667 70.1667,47 92.5,82 22.3333,35 33.5,75.1667 33.5,120.5 0,45.3333 -11.3333,85.6667 -34,121 -22.6667,35.3333 -53.8333,62.8333 -93.5,82.5 -39.6667,19.6667 -85.1667,29.5 -136.5,29.5 h -293 v 235 z m 562,0 -158,-278 121,-89 221,367 z m -401,-383 h 291 c 18.6667,0 35.3333,-3.6667 50,-11 14.6667,-7.3333 26.1667,-17.5 34.5,-30.5 8.3333,-13 12.5,-27.5 12.5,-43.5 0,-24.6667 -9.1667,-45 -27.5,-61 -18.3333,-16 -42.5,-24 -72.5,-24 h -288 z"
       id="path1-5"
       sodipodi:nodetypes="ccssssssscccccccccsssssscc"
       inkscape:label="R"
       style="opacity:1" />
    <path
       id="path4"
       d="M 3830 961 C 3754.379 961 3687.4153 976.50006 3629.1094 1007.5 C 3570.8034 1038.5 3525.041 1081.1668 3491.8242 1135.5 C 3458.6076 1189.8332 3442 1252.3334 3442 1323 C 3442 1392.9999 3458.6076 1455.1668 3491.8242 1509.5 C 3525.041 1563.8332 3570.9794 1606.5 3629.6387 1637.5 C 3688.298 1668.5 3755.7933 1684 3832.1211 1684 C 3907.7421 1684 3974.5278 1668.5 4032.4805 1637.5 C 4090.4331 1606.5 4135.8417 1563.8332 4168.7051 1509.5 C 4201.5684 1455.1668 4218 1392.9999 4218 1323 C 4218 1252.3334 4201.3924 1189.8332 4168.1758 1135.5 C 4134.959 1081.1668 4089.1966 1038.5 4030.8906 1007.5 C 3972.5847 976.50006 3905.621 961 3830 961 z M 3830 1108 C 3873.6384 1108 3912.0992 1117.1667 3945.3828 1135.5 C 3978.6664 1153.8333 4004.9239 1179.1667 4024.1543 1211.5 C 4043.3848 1243.8333 4053 1281 4053 1323 C 4053 1364.3333 4043.7546 1401.1667 4025.2637 1433.5 C 4006.7728 1465.8333 3980.8851 1491 3947.6016 1509 C 3914.318 1527 3875.8571 1536 3832.2188 1536 C 3788.5804 1536 3749.7497 1527 3715.7266 1509 C 3681.7033 1491 3655.0761 1465.8333 3635.8457 1433.5 C 3616.6152 1401.1667 3607 1364.3333 3607 1323 C 3607 1281 3616.6152 1243.8333 3635.8457 1211.5 C 3655.0761 1179.1667 3681.3336 1153.8333 3714.6172 1135.5 C 3747.9008 1117.1667 3786.3616 1108 3830 1108 z "
       inkscape:label="O" />
    <path
       d="M 1969,1672 H 1808 V 972 h 177 L 2157.536,1228 2331,972 h 177 v 700 H 2347 V 1222 L 2158.466,1498 1969,1222 Z"
       id="path30"
       inkscape:label="M" />
    <path
       id="path60"
       d="M 885,972 229,1524 V 1324.9941 L 648.5,972 Z m 10,700 H 667.91016 L 293.90039,1333.9668 396,1221 Z m -759,0 V 972 h 160 v 700 z"
       sodipodi:nodetypes="ccccccccccccccc"
       inkscape:label="K" />
    <path
       d="M 4316,836 V 136 h 700 v 148 h -539 v 135 h 481 v 147 h -481 v 270 z"
       id="path31"
       inkscape:label="F" />
    <path
       d="M 3480,836 V 136 h 695 v 148 h -534 v 128 h 486 v 143 h -486 v 133 h 539 v 148 z"
       id="path32"
       inkscape:label="E" />
  </g>
</svg>
