<?xml version="1.0" encoding="UTF-8" standalone="no"?>
<svg
   width="8739"
   height="2698"
   version="1.1"
   id="svg1"
   inkscape:version="1.3.2 (091e20ef0f, 2023-11-25)"
   sodipodi:docname="letters.inkscape.svg"
   xmlns:inkscape="http://www.inkscape.org/namespaces/inkscape"
   xmlns:sodipodi="http://sodipodi.sourceforge.net/DTD/sodipodi-0.dtd"
   xmlns="http://www.w3.org/2000/svg"
   xmlns:svg="http://www.w3.org/2000/svg">
  <sodipodi:namedview
     id="namedview1"
     pagecolor="#ffffff"
     bordercolor="#000000"
     borderopacity="0.25"
     inkscape:showpageshadow="2"
     inkscape:pageopacity="0.0"
     inkscape:pagecheckerboard="0"
     inkscape:deskcolor="#2f2f2f"
     inkscape:document-units="px"
     showgrid="false"
     inkscape:zoom="0.14120609"
     inkscape:cx="4369.4999"
     inkscape:cy="1349.092"
     inkscape:current-layer="layer2" />
  <defs
     id="defs1">
    <path
       id="prefix__A"
       d="M5313.999 1849.526h3288.998v709.316H5313.999z" />
    <path
       id="prefix__i"
       d="M136 836h700v163H136z" />
    <path
       id="prefix__j"
       d="M136 836h700v163H136z" />
    <path
       id="prefix__k"
       d="M136 836h700v163H136z" />
    <path
       id="prefix__l"
       d="M136 836h700v163H136z" />
    <path
       id="prefix__m"
       d="M136 836h700v163H136z" />
    <path
       id="prefix__n"
       d="M136 836h700v163H136z" />
    <path
       id="prefix__o"
       d="M136 836h700v163H136z" />
    <path
       id="prefix__p"
       d="M136 836h700v163H136z" />
    <path
       id="prefix__g"
       d="M136 836h700v163H136z" />
    <path
       id="prefix__h"
       d="M136 836h700v163H136z" />
    <path
       id="prefix__q"
       d="M136 836h700v163H136z" />
    <path
       id="prefix__r"
       d="M136 836h700v163H136z" />
    <path
       id="prefix__s"
       d="M136 836h700v163H136z" />
    <path
       id="prefix__t"
       d="M136 836h700v163H136z" />
    <path
       id="prefix__u"
       d="M136 836h700v163H136z" />
    <path
       id="prefix__v"
       d="M136 836h700v163H136z" />
    <path
       id="prefix__w"
       d="M136 836h700v163H136z" />
    <path
       id="prefix__x"
       d="M136 836h700v163H136z" />
    <path
       id="prefix__y"
       d="M136 836h700v163H136z" />
    <path
       id="prefix__z"
       d="M136 836h700v163H136z" />
    <path
       id="prefix__a"
       d="M136 836h700v163H136z" />
    <path
       id="prefix__b"
       d="M136 836h700v163H136z" />
    <path
       id="prefix__c"
       d="M136 836h700v163H136z" />
    <path
       id="prefix__d"
       d="M136 836h700v163H136z" />
    <path
       id="prefix__e"
       d="M136 836h700v163H136z" />
    <path
       id="prefix__f"
       d="M136 836h700v163H136z" />
  </defs>
  <g
     inkscape:groupmode="layer"
     id="layer1"
     inkscape:label="Characters"
     inkscape:highlight-color="#1740ea">
    <path
       d="M 8172.997,1699 V 1147 H 7902.998 V 999 h 700 v 148 h -270 v 552 z"
       id="path1"
       inkscape:label="T" />
    <path
       d="M 2023,1699 H 1862 V 999 h 177 L 2211.536,1255 2385,999 h 177 v 700 H 2401 V 1249 L 2212.466,1525 2023,1249 Z"
       id="path30"
       inkscape:label="M" />
    <path
       d="M 4450.999,836 V 136 h 700 v 148 h -539 v 135 h 481 v 147 h -481 v 270 z"
       id="path31"
       inkscape:label="F" />
    <path
       d="M 3587.999,836 V 136 h 695 v 148 h -534 v 128 h 486 v 143 h -486 v 133 h 539 v 148 z"
       id="path32"
       inkscape:label="E" />
  </g>
  <g
     inkscape:groupmode="layer"
     id="layer2"
     inkscape:label="Guides"
     sodipodi:insensitive="true">
    <g
       font-weight="400"
       font-size="120px"
       font-family="'Fira Code'"
       letter-spacing="0"
       stroke-width="0"
       id="g30"
       inkscape:label="Text">
      <text
         transform="translate(4315,1726)"
         id="text2"
         inkscape:label="Z"><tspan
           x="449.077"
           y="941"
           id="tspan2">Z</tspan></text>
      <text
         transform="translate(3452,1726)"
         id="text3"
         inkscape:label="Y"><tspan
           x="449.077"
           y="941"
           id="tspan3">Y</tspan></text>
      <text
         transform="translate(2589,1726)"
         id="text4"
         inkscape:label="X"><tspan
           x="449.077"
           y="941"
           id="tspan4">X</tspan></text>
      <text
         transform="translate(1726,1726)"
         id="text5"
         inkscape:label="W"><tspan
           x="449.077"
           y="941"
           id="tspan5">W</tspan></text>
      <text
         transform="translate(863,1726)"
         id="text6"
         inkscape:label="V"><tspan
           x="449.077"
           y="941"
           id="tspan6">V</tspan></text>
      <text
         transform="translate(0,1726)"
         id="text7"
         inkscape:label="U"><tspan
           x="449.077"
           y="941"
           id="tspan7">U</tspan></text>
      <text
         transform="translate(7767,863)"
         id="text8"
         inkscape:label="T"><tspan
           x="449.077"
           y="941"
           id="tspan8">T</tspan></text>
      <text
         transform="translate(6904,863)"
         id="text9"
         inkscape:label="S"><tspan
           x="449.077"
           y="941"
           id="tspan9">S</tspan></text>
      <text
         transform="translate(6041,863)"
         id="text10"
         inkscape:label="R"><tspan
           x="449.077"
           y="941"
           id="tspan10">R</tspan></text>
      <text
         transform="translate(5178,863)"
         id="text11"
         inkscape:label="Q"><tspan
           x="449.077"
           y="941"
           id="tspan11">Q</tspan></text>
      <text
         transform="translate(4315,863)"
         id="text12"
         inkscape:label="P"><tspan
           x="449.077"
           y="941"
           id="tspan12">P</tspan></text>
      <text
         transform="translate(3452,863)"
         id="text13"
         inkscape:label="O"><tspan
           x="449.077"
           y="941"
           id="tspan13">O</tspan></text>
      <text
         transform="translate(2589,863)"
         id="text14"
         inkscape:label="N"><tspan
           x="449.077"
           y="941"
           id="tspan14">N</tspan></text>
      <text
         transform="translate(1726,863)"
         id="text15"
         inkscape:label="M"><tspan
           x="449.077"
           y="941"
           id="tspan15">M</tspan></text>
      <text
         transform="translate(863,863)"
         id="text16"
         inkscape:label="L"><tspan
           x="449.077"
           y="941"
           id="tspan16">L</tspan></text>
      <text
         transform="translate(0,863)"
         id="text17"
         inkscape:label="K"><tspan
           x="449.077"
           y="941"
           id="tspan17">K</tspan></text>
      <text
         transform="translate(7767)"
         id="text18"
         inkscape:label="J"><tspan
           x="449.077"
           y="941"
           id="tspan18">J</tspan></text>
      <text
         transform="translate(6904)"
         id="text19"
         inkscape:label="I"><tspan
           x="449.077"
           y="941"
           id="tspan19">I</tspan></text>
      <text
         transform="translate(6041)"
         id="text20"
         inkscape:label="H"><tspan
           x="449.077"
           y="941"
           id="tspan20">H</tspan></text>
      <text
         transform="translate(5178)"
         id="text21"
         inkscape:label="G"><tspan
           x="449.077"
           y="941"
           id="tspan21">G</tspan></text>
      <text
         transform="translate(4315)"
         id="text22"
         inkscape:label="F"><tspan
           x="449.077"
           y="941"
           id="tspan22">F</tspan></text>
      <text
         transform="translate(3452)"
         id="text23"
         inkscape:label="E"><tspan
           x="449.077"
           y="941"
           id="tspan23">E</tspan></text>
      <text
         transform="translate(2589)"
         id="text24"
         inkscape:label="D"><tspan
           x="449.077"
           y="941"
           id="tspan24">D</tspan></text>
      <text
         transform="translate(1726)"
         id="text25"
         inkscape:label="C"><tspan
           x="449.077"
           y="941"
           id="tspan25">C</tspan></text>
      <text
         transform="translate(863)"
         id="text26"
         inkscape:label="B"><tspan
           x="449.077"
           y="941"
           id="tspan26">B</tspan></text>
      <text
         id="text27"
         inkscape:label="A"><tspan
           x="449.077"
           y="941"
           id="tspan27">A</tspan></text>
      <text
         x="-31.200001"
         id="text30"
         inkscape:label="OMER MAKES STUFF"><tspan
           x="5314"
           y="1954.525"
           id="tspan28">OMER MAKES STUFF</tspan><tspan
           x="5314"
           y="2104.5249"
           id="tspan30"><tspan
             dx="0 0 0 0 0 0 0 0 0 0 0 0 0 0 0 0 0 0 0 0 0 0 0 0 0 0 0 0 0"
             id="tspan29">A, E, F, K, M, O, R, S, T, U</tspan></tspan></text>
    </g>
    <g
       fill-opacity="0.35"
       id="g2"
       inkscape:label="Squares">
      <path
         d="M 136,136 H 836 V 836 H 136 Z"
         id="path57" />
      <path
         d="m 999,136 h 700 V 836 H 999 Z"
         id="path56" />
      <path
         d="m 1862,136 h 700 v 700 h -700 z"
         id="path55" />
      <path
         d="m 2724.999,136 h 700 v 700 h -700 z"
         id="path54" />
      <path
         d="m 3587.999,136 h 700 v 700 h -700 z"
         id="path53" />
      <path
         d="m 4450.999,136 h 700 v 700 h -700 z"
         id="path52" />
      <path
         d="m 5313.999,136 h 700 v 700 h -700 z"
         id="path51" />
      <path
         d="m 6176.998,136 h 700 v 700 h -700 z"
         id="path50" />
      <path
         d="m 7039.998,136 h 700 v 700 h -700 z"
         id="path49" />
      <path
         d="m 7902.998,136 h 700 v 700 h -700 z"
         id="path48" />
      <path
         d="m 136,999 h 700 v 700 H 136 Z"
         id="path47" />
      <path
         d="m 999,999 h 700 v 700 H 999 Z"
         id="path46" />
      <path
         d="m 1862,999 h 700 v 700 h -700 z"
         id="path45" />
      <path
         d="m 2724.999,999 h 700 v 700 h -700 z"
         id="path44" />
      <path
         d="m 3587.999,999 h 700 v 700 h -700 z"
         id="path43" />
      <path
         d="m 4450.999,999 h 700 v 700 h -700 z"
         id="path42" />
      <path
         d="m 5313.999,999 h 700 v 700 h -700 z"
         id="path41" />
      <path
         d="m 6176.998,999 h 700 v 700 h -700 z"
         id="path40" />
      <path
         d="m 7039.998,999 h 700 v 700 h -700 z"
         id="path39" />
      <path
         d="m 7902.998,999 h 700 v 700 h -700 z"
         id="path38" />
      <path
         d="m 136,1862 h 700 v 700 H 136 Z"
         id="path37" />
      <path
         d="m 999,1862 h 700 v 700 H 999 Z"
         id="path36" />
      <path
         d="m 1862,1862 h 700 v 700 h -700 z"
         id="path35" />
      <path
         d="m 2724.999,1862 h 700 v 700 h -700 z"
         id="path34" />
      <path
         d="m 3587.999,1862 h 700 v 700 h -700 z"
         id="path33" />
      <path
         d="m 4450.999,1862 h 700 v 700 h -700 z"
         id="path2" />
    </g>
  </g>
</svg>
