<?xml version="1.0" encoding="UTF-8" standalone="no"?>
<svg
   width="128"
   height="128"
   version="1.1"
   id="svg1"
   sodipodi:docname="logo.inkscape.svg"
   inkscape:version="1.4 (e7c3feb100, 2024-10-09)"
   xmlns:inkscape="http://www.inkscape.org/namespaces/inkscape"
   xmlns:sodipodi="http://sodipodi.sourceforge.net/DTD/sodipodi-0.dtd"
   xmlns="http://www.w3.org/2000/svg"
   xmlns:svg="http://www.w3.org/2000/svg">
  <sodipodi:namedview
     id="namedview1"
     pagecolor="#ffffff"
     bordercolor="#000000"
     borderopacity="0.25"
     inkscape:showpageshadow="2"
     inkscape:pageopacity="0.0"
     inkscape:pagecheckerboard="0"
     inkscape:deskcolor="#2f2f2f"
     inkscape:zoom="1"
     inkscape:cx="64"
     inkscape:cy="63.5"
     inkscape:current-layer="svg1" />
  <path
     id="o"
     inkscape:label="O"
     d="m 44,25.434 c -3.89,0 -7.333,0.797 -10.332,2.392 -2.998,1.594 -5.352,3.788 -7.06,6.583 -1.708,2.794 -2.562,6.008 -2.562,9.642 0,3.6 0.854,6.798 2.562,9.592 1.708,2.794 4.07,4.988 7.088,6.583 3.016,1.594 6.488,2.391 10.413,2.391 3.89,0 7.324,-0.797 10.304,-2.391 2.98,-1.595 5.316,-3.789 7.006,-6.583 1.69,-2.794 2.535,-5.992 2.535,-9.592 0,-3.634 -0.854,-6.848 -2.562,-9.642 -1.708,-2.795 -4.062,-4.989 -7.06,-6.583 -3,-1.595 -6.443,-2.392 -10.332,-2.392 z m 0,7.56 c 2.244,0 4.222,0.472 5.934,1.415 a 10.547,10.547 0 0 1 4.051,3.908 c 0.99,1.663 1.484,3.574 1.484,5.734 0,2.126 -0.476,4.02 -1.427,5.683 -0.95,1.663 -2.282,2.957 -3.994,3.883 -1.712,0.926 -3.69,1.389 -5.934,1.389 -2.244,0 -4.241,-0.463 -5.99,-1.389 -1.75,-0.926 -3.12,-2.22 -4.11,-3.883 -0.988,-1.663 -1.483,-3.557 -1.483,-5.683 0,-2.16 0.495,-4.071 1.484,-5.734 a 10.547,10.547 0 0 1 4.051,-3.908 c 1.712,-0.943 3.69,-1.415 5.934,-1.415 z" />
  <path
     id="m"
     inkscape:label="M"
     d="M 74.28,62 H 66 V 26 h 9.103 L 84,40.194 92.897,26 H 102 V 62 H 93.72 V 39.526 L 84,55.057 74.28,39.526 Z" />
  <path
     id="e"
     inkscape:label="E" 
     d="M 26,102 V 66 h 35.743 v 7.611 H 34.28 v 6.583 h 24.994 v 7.355 H 34.28 v 6.84 H 62 V 102 Z" />
  <path
     id="r"
     inkscape:label="R"
     d="M 66,102 V 66 h 23.503 c 2.606,0 4.92,0.506 6.943,1.517 2.023,1.012 3.608,2.417 4.757,4.217 1.148,1.8 1.723,3.866 1.723,6.197 0,2.332 -0.583,4.406 -1.749,6.223 -1.166,1.817 -2.768,3.232 -4.808,4.243 -2.04,1.012 -4.38,1.517 -7.02,1.517 H 74.28 V 102 Z M 94.903,102 86.777,87.703 93,83.126 104.366,102 Z M 74.28,82.303 h 14.966 c 0.96,0 1.817,-0.189 2.571,-0.566 0.754,-0.377 1.346,-0.9 1.774,-1.568 a 4.058,4.058 0 0 0 0.643,-2.238 c 0,-1.268 -0.471,-2.314 -1.414,-3.137 C 91.877,73.971 90.634,73.56 89.091,73.56 H 74.28 Z" />
</svg>
