<svg width="128" height="128" xmlns="http://www.w3.org/2000/svg">
  <path
    d="M44 25.434c-3.89 0-7.333.797-10.332 2.392-2.998 1.594-5.352 3.788-7.06 6.583-1.708 2.794-2.562 6.008-2.562 9.642 0 3.6.854 6.798 2.562 9.592 1.708 2.794 4.07 4.988 7.088 6.583 3.016 1.594 6.488 2.391 10.413 2.391 3.89 0 7.324-.797 10.304-2.391 2.98-1.595 5.316-3.789 7.006-6.583 1.69-2.794 2.535-5.992 2.535-9.592 0-3.634-.854-6.848-2.562-9.642-1.708-2.795-4.062-4.989-7.06-6.583-3-1.595-6.443-2.392-10.332-2.392zm0 7.56c2.244 0 4.222.472 5.934 1.415a10.547 10.547 0 014.051 3.908c.99 1.663 1.484 3.574 1.484 5.734 0 2.126-.476 4.02-1.427 5.683-.95 1.663-2.282 2.957-3.994 3.883-1.712.926-3.69 1.389-5.934 1.389s-4.241-.463-5.99-1.389c-1.75-.926-3.12-2.22-4.11-3.883-.988-1.663-1.483-3.557-1.483-5.683 0-2.16.495-4.071 1.484-5.734a10.547 10.547 0 014.051-3.908c1.712-.943 3.69-1.415 5.934-1.415z" />
  <path d="M74.28 62H66V26h9.103L84 40.194 92.897 26H102v36h-8.28V39.526L84 55.057l-9.72-15.531z" />
  <path d="M26 102V66h35.743v7.611H34.28v6.583h24.994v7.355H34.28v6.84H62V102z" />
  <path
    d="M66 102V66h23.503c2.606 0 4.92.506 6.943 1.517 2.023 1.012 3.608 2.417 4.757 4.217 1.148 1.8 1.723 3.866 1.723 6.197 0 2.332-.583 4.406-1.749 6.223-1.166 1.817-2.768 3.232-4.808 4.243-2.04 1.012-4.38 1.517-7.02 1.517H74.28V102zm28.903 0l-8.126-14.297L93 83.126 104.366 102zM74.28 82.303h14.966c.96 0 1.817-.189 2.571-.566.754-.377 1.346-.9 1.774-1.568a4.058 4.058 0 00.643-2.238c0-1.268-.471-2.314-1.414-3.137s-2.186-1.234-3.729-1.234H74.28z" />
</svg>