<svg xmlns="http://www.w3.org/2000/svg" width="5500" height="3900" viewBox="0 0 5500 3900" fill="currentColor">
  <path
    d="M1150 789c-75.621 0-142.585 15.5-200.89 46.5-58.307 31-104.069 73.667-137.286 128C778.608 1017.833 762 1080.333 762 1151c0 70 16.608 132.167 49.824 186.5 33.217 54.333 79.155 97 137.815 128 58.659 31 126.154 46.5 202.482 46.5 75.621 0 142.407-15.5 200.36-46.5 57.952-31 103.36-73.667 136.224-128C1521.568 1283.167 1538 1221 1538 1151c0-70.667-16.608-133.167-49.824-187.5-33.217-54.333-78.98-97-137.285-128-58.306-31-125.271-46.5-200.891-46.5zm0 147c43.638 0 82.1 9.167 115.383 27.5s59.54 43.667 78.771 76c19.23 32.333 28.846 69.5 28.846 111.5 0 41.333-9.245 78.167-27.736 110.5s-44.379 57.5-77.662 75.5c-33.284 18-71.745 27-115.383 27-43.639 0-82.47-9-116.492-27-34.024-18-60.65-43.167-79.881-75.5C936.616 1229.167 927 1192.333 927 1151c0-42 9.615-79.167 28.846-111.5 19.23-32.333 45.488-57.667 78.771-76 33.284-18.333 71.745-27.5 115.383-27.5z" />
  <path d="M1761 1500h-161V800h177l173 276 173-276h177v700h-161v-437l-189 302-189-302z" />
  <path d="M2400 1500V800h695v148h-534v128h486v143h-486v133h539v148z" />
  <path
    d="M3200 1500V800h457c50.667 0 95.667 9.833 135 29.5s70.167 47 92.5 82 33.5 75.167 33.5 120.5-11.333 85.667-34 121-53.833 62.833-93.5 82.5-85.167 29.5-136.5 29.5h-293v235zm562 0l-158-278 121-89 221 367zm-401-383h291c18.667 0 35.333-3.667 50-11 14.667-7.333 26.167-17.5 34.5-30.5 8.333-13 12.5-27.5 12.5-43.5 0-24.667-9.167-45-27.5-61s-42.5-24-72.5-24h-288z" />
  <path d="M961 2300H800v-700h177l173 276 173-276h177v700h-161v-437l-189 302-189-302z" />
  <path d="M2036 1600l324 700h-170.295l-324-700zm-1.705 0l-324 700H1540l324-700zM1720 2167v-142h461v142z" />
  <path d="M3149 1600l-656 552v-199.006L2912.5 1600zm10 700h-227.09l-374.01-338.033L2660 1849zm-759 0v-700h160v700z" />
  <path d="M3200 2300v-700h695v148h-534v128h486v143h-486v133h539v148z" />
  <path
    d="M4125 2100c15.745 19.333 43.3 36.167 82.662 50.5 39.362 14.333 89.103 21.833 149.22 22.5 58.687.666 107.711-5.667 147.074-19 39.363-13.333 59.044-30.667 59.044-52 0-16.667-13.956-31.333-41.868-44-27.911-12.667-67.632-22.333-119.161-29l-168.153-25c-50.351-8.667-94.166-22.333-131.445-41-37.28-18.667-66.328-41.5-87.146-68.5-20.818-27-31.227-57.833-31.227-92.5 0-67.333 32.437-119.833 97.313-157.5 64.875-37.667 156.378-56.5 274.509-56.5 64.874 0 121.52 6.167 169.934 18.5 48.413 12.333 89.808 30.5 124.182 54.5 34.374 24 61.728 54 82.062 90l-158 47c-11.805-18-37.261-34.333-76.367-49-39.106-14.667-89.649-22-151.628-22-61.98 0-110.308 6.333-144.987 19-34.679 12.667-52.018 31-52.018 55 0 16.667 14.019 30.5 42.057 41.5 28.039 11 66.406 19.167 115.104 24.5l167.004 25c81.485 14 144.996 40.167 190.532 78.5 45.535 38.333 68.303 81.833 68.303 130.5 0 44-14.62 81.667-43.858 113-29.239 31.333-71.659 55.5-127.26 72.5-55.602 17-122.707 25.5-201.316 25.5-48.891 0-95.625-4.5-140.202-13.5s-84.84-21.333-120.79-37c-35.95-15.667-65.427-33.333-88.435-53-23.007-19.667-37.387-40.833-43.139-63.5z" />
  <path
    d="M925 2900c15.745 19.333 43.3 36.167 82.662 50.5 39.362 14.333 89.103 21.833 149.22 22.5 58.687.667 107.711-5.667 147.074-19 39.363-13.333 59.044-30.667 59.044-52 0-16.667-13.956-31.333-41.868-44-27.911-12.667-67.632-22.333-119.161-29l-168.153-25c-50.351-8.667-94.166-22.333-131.445-41-37.28-18.667-66.328-41.5-87.146-68.5-20.818-27-31.227-57.833-31.227-92.5 0-67.333 32.437-119.833 97.313-157.5 64.875-37.667 156.378-56.5 274.508-56.5 64.875 0 121.52 6.167 169.934 18.5 48.414 12.334 89.809 30.5 124.183 54.5 34.374 24 61.728 54 82.062 90l-158 47c-11.806-18-37.261-34.333-76.367-49-39.106-14.667-89.649-22-151.628-22-61.979 0-110.308 6.333-144.987 19-34.679 12.667-52.018 31-52.018 55 0 16.667 14.019 30.5 42.057 41.5 28.039 11 66.406 19.167 115.104 24.5l167.004 25c81.485 14 144.996 40.167 190.531 78.5 45.536 38.333 68.304 81.833 68.304 130.5 0 44-14.62 81.667-43.858 113-29.239 31.333-71.659 55.5-127.26 72.5-55.602 17-122.707 25.5-201.316 25.5-48.891 0-95.625-4.5-140.202-13.5s-84.84-21.333-120.79-37c-35.949-15.667-65.427-33.333-88.435-53-23.007-19.667-37.387-40.833-43.139-63.5z" />
  <path d="M1869.5 3100v-552H1600v-148h700v148h-269.5v552z" />
  <path
    d="M3100 2400v379.723c0 68.487-14.135 127.617-42.406 177.39-28.271 49.772-68.885 88.196-121.843 115.272-52.958 27.076-115.671 40.615-188.14 40.615-71.672 0-133.59-13.539-185.751-40.615s-92.179-65.5-120.051-115.273C2413.936 2907.34 2400 2848.21 2400 2779.723V2400h161v377.864c0 38.182 7.636 71.114 22.909 98.795 15.273 27.682 36.989 49.16 65.148 64.432 28.159 15.273 61.807 22.91 100.943 22.91 38.182 0 71.59-7.637 100.227-22.91s50.591-36.75 65.864-64.432c15.273-27.682 22.909-60.613 22.909-98.795V2400" />
  <path d="M3200 3100v-700h700v148h-539v135h481v147h-481v270z" />
  <path d="M4000 3100v-700h700v148h-539v135h481v147h-481v270z" />
</svg>