<svg width="128" height="128" xmlns="http://www.w3.org/2000/svg">
   <path fill="#1740ea" d="M0 0h128v128H0z" />
   <path
      d="M42.973 23.375c-3.817 0-7.199.852-10.141 2.553-2.942 1.665-5.254 3.981-6.934 6.949-1.682 2.93-2.523 6.314-2.523 10.15 0 3.8.841 7.185 2.523 10.153 1.681 2.93 3.992 5.247 6.934 6.947 2.977 1.665 6.393 2.496 10.246 2.496 3.818 0 7.199-.831 10.14-2.496 2.944-1.701 5.238-4.016 6.884-6.947 1.682-2.968 2.523-6.353 2.523-10.153 0-3.836-.841-7.22-2.523-10.15-1.681-2.968-3.992-5.284-6.934-6.95-2.942-1.7-6.341-2.552-10.195-2.552zM66 24v38h10.041V39.525l9.01 14.875 8.906-14.875V62H104V24H92.871L85 37.57 77.129 24H66zm-23.025 8.604c1.89 0 3.554.453 4.99 1.357 1.47.869 2.61 2.098 3.416 3.691.84 1.556 1.26 3.348 1.26 5.375s-.401 3.817-1.207 5.373c-.806 1.557-1.928 2.789-3.364 3.694-1.436.869-3.1 1.302-4.992 1.302s-3.573-.433-5.043-1.302c-1.436-.905-2.575-2.137-3.416-3.694-.84-1.556-1.26-3.346-1.26-5.373s.401-3.819 1.207-5.375c.841-1.592 1.98-2.822 3.416-3.691 1.472-.904 3.136-1.357 4.993-1.357zM24 66v38h38v-9.229H33.842v-5.32H57.13v-8.957H33.84V75.23h27.6V66H24zm42 0v38h10.043V91.95h11.758L94.637 104h11.51l-8.35-13.816c2.09-1.11 3.743-2.597 4.928-4.479 1.268-1.99 1.898-4.252 1.898-6.785 0-2.533-.631-4.76-1.898-6.678-1.23-1.954-2.95-3.472-5.157-4.558C95.36 66.56 92.827 66 89.968 66H66zm10.041 9.174h13.385c1.374 0 2.476.362 3.308 1.086.87.688 1.303 1.574 1.303 2.66a3.37 3.37 0 01-.596 1.953c-.398.579-.942 1.032-1.629 1.357-.687.326-1.482.49-2.386.49H76.043l-.002-7.546z"
      fill="#fff" />
</svg>