<?xml version="1.0" encoding="UTF-8" standalone="no"?>
<svg
   width="4300"
   height="2700"
   version="1.1"
   id="svg1"
   sodipodi:docname="omer-makes-stuff.inkscape.svg"
   inkscape:version="1.4 (e7c3feb100, 2024-10-09)"
   xmlns:inkscape="http://www.inkscape.org/namespaces/inkscape"
   xmlns:sodipodi="http://sodipodi.sourceforge.net/DTD/sodipodi-0.dtd"
   xmlns="http://www.w3.org/2000/svg"
   xmlns:svg="http://www.w3.org/2000/svg">
  <sodipodi:namedview
     id="namedview1"
     pagecolor="#ffffff"
     bordercolor="#000000"
     borderopacity="0.25"
     inkscape:showpageshadow="2"
     inkscape:pageopacity="0.0"
     inkscape:pagecheckerboard="0"
     inkscape:deskcolor="#2f2f2f"
     showgrid="true"
     inkscape:zoom="0.25"
     inkscape:cx="2152"
     inkscape:cy="1350"
     inkscape:current-layer="svg1">
    <inkscape:grid
       type="modular"
       id="chars-grid"
       units="px"
       originx="150"
       originy="150"
       spacingx="700"
       spacingy="700"
       gapx="100"
       gapy="100"
       empspacing="0"
       marginx="0"
       marginy="0"
       enabled="true"
       visible="true" />
  </sodipodi:namedview>
  <path
     id="char-o"
     inkscape:label="O"
     d="m 550,189 c -75.621,0 -142.585,15.5 -200.89,46.5 -58.307,31 -104.069,73.667 -137.286,128 C 178.608,417.833 162,480.333 162,551 c 0,70 16.608,132.167 49.824,186.5 33.217,54.333 79.155,97 137.815,128 58.659,31 126.154,46.5 202.482,46.5 75.621,0 142.407,-15.5 200.36,-46.5 57.952,-31 103.36,-73.667 136.224,-128 C 921.568,683.167 938,621 938,551 938,480.333 921.392,417.833 888.176,363.5 854.959,309.167 809.196,266.5 750.891,235.5 692.585,204.5 625.62,189 550,189 Z m 0,147 c 43.638,0 82.1,9.167 115.383,27.5 33.283,18.333 59.54,43.667 78.771,76 C 763.384,471.833 773,509 773,551 c 0,41.333 -9.245,78.167 -27.736,110.5 -18.491,32.333 -44.379,57.5 -77.662,75.5 -33.284,18 -71.745,27 -115.383,27 -43.639,0 -82.47,-9 -116.492,-27 -34.024,-18 -60.65,-43.167 -79.881,-75.5 C 336.616,629.167 327,592.333 327,551 c 0,-42 9.615,-79.167 28.846,-111.5 19.23,-32.333 45.488,-57.667 78.771,-76 C 467.901,345.167 506.362,336 550,336 Z" />
  <path
     id="char-m"
     inkscape:label="M"
     d="M 1161,900 H 1000 V 200 h 177 l 173,276 173,-276 h 177 V 900 H 1539 V 463 L 1350,765 1161,463 Z" />
  <path
     id="char-e"
     inkscape:label="E"
     d="M 1800,900 V 200 h 695 v 148 h -534 v 128 h 486 v 143 h -486 v 133 h 539 v 148 z" />
  <path
     id="char-r"
     inkscape:label="R"
     d="M 2600,900 V 200 h 457 c 50.667,0 95.667,9.833 135,29.5 39.333,19.667 70.167,47 92.5,82 22.333,35 33.5,75.167 33.5,120.5 0,45.333 -11.333,85.667 -34,121 -22.667,35.333 -53.833,62.833 -93.5,82.5 -39.667,19.667 -85.167,29.5 -136.5,29.5 h -293 v 235 z m 562,0 -158,-278 121,-89 221,367 z M 2761,517 h 291 c 18.667,0 35.333,-3.667 50,-11 14.667,-7.333 26.167,-17.5 34.5,-30.5 8.333,-13 12.5,-27.5 12.5,-43.5 0,-24.667 -9.167,-45 -27.5,-61 -18.333,-16 -42.5,-24 -72.5,-24 h -288 z" />
  <path
     id="char-m-0"
     inkscape:label="M"
     d="M 361,1700 H 200 v -700 h 177 l 173,276 173,-276 h 177 v 700 H 739 V 1263 L 550,1565 361,1263 Z" />
  <path
     id="char-a"
     inkscape:label="A"
     d="m 1436,1000 324,700 h -170.295 l -324,-700 z m -1.705,0 -324,700 H 940 l 324,-700 z M 1120,1567 v -142 h 461 v 142 z" />
  <path
     id="char-k"
     inkscape:label="K"
     d="m 2549,1000 -656,552 V 1352.994 L 2312.5,1000 Z m 10,700 H 2331.91 L 1957.9,1361.967 2060,1249 Z m -759,0 v -700 h 160 v 700 z" />
  <path
     id="char-e-0"
     inkscape:label="E"
     d="m 2600,1700 v -700 h 695 v 148 h -534 v 128 h 486 v 143 h -486 v 133 h 539 v 148 z" />
  <path
     id="char-s"
     inkscape:label="S"
     d="m 3525,1500 c 15.745,19.333 43.3,36.167 82.662,50.5 39.362,14.333 89.103,21.833 149.22,22.5 58.687,0.666 107.711,-5.667 147.074,-19 39.363,-13.333 59.044,-30.667 59.044,-52 0,-16.667 -13.956,-31.333 -41.868,-44 -27.911,-12.667 -67.632,-22.333 -119.161,-29 l -168.153,-25 c -50.351,-8.667 -94.166,-22.333 -131.445,-41 -37.28,-18.667 -66.328,-41.5 -87.146,-68.5 -20.818,-27 -31.227,-57.833 -31.227,-92.5 0,-67.333 32.437,-119.833 97.313,-157.5 64.875,-37.667 156.378,-56.5 274.509,-56.5 64.874,0 121.52,6.167 169.934,18.5 48.413,12.333 89.808,30.5 124.182,54.5 34.374,24 61.728,54 82.062,90 l -158,47 c -11.805,-18 -37.261,-34.333 -76.367,-49 -39.106,-14.667 -89.649,-22 -151.628,-22 -61.98,0 -110.308,6.333 -144.987,19 -34.679,12.667 -52.018,31 -52.018,55 0,16.667 14.019,30.5 42.057,41.5 28.039,11 66.406,19.167 115.104,24.5 l 167.004,25 c 81.485,14 144.996,40.167 190.532,78.5 45.535,38.333 68.303,81.833 68.303,130.5 0,44 -14.62,81.667 -43.858,113 -29.239,31.333 -71.659,55.5 -127.26,72.5 -55.602,17 -122.707,25.5 -201.316,25.5 -48.891,0 -95.625,-4.5 -140.202,-13.5 -44.577,-9 -84.84,-21.333 -120.79,-37 -35.95,-15.667 -65.427,-33.333 -88.435,-53 -23.007,-19.667 -37.387,-40.833 -43.139,-63.5 z" />
  <path
     id="char-s-0"
     inkscape:label="S"
     d="m 325,2300 c 15.745,19.333 43.3,36.167 82.662,50.5 39.362,14.333 89.103,21.833 149.22,22.5 58.687,0.667 107.711,-5.667 147.074,-19 39.363,-13.333 59.044,-30.667 59.044,-52 0,-16.667 -13.956,-31.333 -41.868,-44 -27.911,-12.667 -67.632,-22.333 -119.161,-29 l -168.153,-25 c -50.351,-8.667 -94.166,-22.333 -131.445,-41 -37.28,-18.667 -66.328,-41.5 -87.146,-68.5 C 194.409,2067.5 184,2036.667 184,2002 c 0,-67.333 32.437,-119.833 97.313,-157.5 64.875,-37.667 156.378,-56.5 274.508,-56.5 64.875,0 121.52,6.167 169.934,18.5 48.414,12.334 89.809,30.5 124.183,54.5 34.374,24 61.728,54 82.062,90 l -158,47 c -11.806,-18 -37.261,-34.333 -76.367,-49 -39.106,-14.667 -89.649,-22 -151.628,-22 -61.979,0 -110.308,6.333 -144.987,19 -34.679,12.667 -52.018,31 -52.018,55 0,16.667 14.019,30.5 42.057,41.5 28.039,11 66.406,19.167 115.104,24.5 l 167.004,25 c 81.485,14 144.996,40.167 190.531,78.5 45.536,38.333 68.304,81.833 68.304,130.5 0,44 -14.62,81.667 -43.858,113 -29.239,31.333 -71.659,55.5 -127.26,72.5 -55.602,17 -122.707,25.5 -201.316,25.5 -48.891,0 -95.625,-4.5 -140.202,-13.5 -44.577,-9 -84.84,-21.333 -120.79,-37 -35.949,-15.667 -65.427,-33.333 -88.435,-53 C 187.132,2388.833 172.752,2367.667 167,2345 Z" />
  <path
     id="char-t"
     inkscape:label="T"
     d="M 1269.5,2500 V 1948 H 1000 v -148 h 700 v 148 h -269.5 v 552 z" />
  <path
     id="char-u"
     inkscape:label="U"
     d="m 2500,1800 v 379.723 c 0,68.487 -14.135,127.617 -42.406,177.39 -28.271,49.772 -68.885,88.196 -121.843,115.272 -52.958,27.076 -115.671,40.615 -188.14,40.615 -71.672,0 -133.59,-13.539 -185.751,-40.615 -52.161,-27.076 -92.179,-65.5 -120.051,-115.273 C 1813.936,2307.34 1800,2248.21 1800,2179.723 V 1800 h 161 v 377.864 c 0,38.182 7.636,71.114 22.909,98.795 15.273,27.682 36.989,49.16 65.148,64.432 28.159,15.273 61.807,22.91 100.943,22.91 38.182,0 71.59,-7.637 100.227,-22.91 28.637,-15.273 50.591,-36.75 65.864,-64.432 15.273,-27.682 22.909,-60.613 22.909,-98.795 V 1800" />
  <path
     id="char-f"
     inkscape:label="F"
     d="m 2600,2500 v -700 h 700 v 148 h -539 v 135 h 481 v 147 h -481 v 270 z" />
  <path
     id="char-f-0"
     inkscape:label="F"
     d="m 3400,2500 v -700 h 700 v 148 h -539 v 135 h 481 v 147 h -481 v 270 z" />
</svg>
